{"title":"The.Shop.Around.The.Corner.1940.HQ.720p.x264.AC3.[FrOnkY]","uid":11968867,"size":1789963173,"categoryP":"video","categoryS":"hd___movies","magnet":"?xt=urn:btih:9a59552b3ab3b296a42cae24776c8b88f70bdfed&amp;dn=The.Shop.Around.The.Corner.1940.HQ.720p.x264.AC3.%5BFrOnkY%5D&amp;tr=udp%3A%2F%2Ftracker.openbittorrent.com%3A80&amp;tr=udp%3A%2F%2Fopen.demonii.com%3A1337&amp;tr=udp%3A%2F%2Ftracker.coppersurfer.tk%3A6969&amp;tr=udp%3A%2F%2Fexodus.desync.com%3A6969","seeders":0,"leechers":0,"uploader":"HDmEntEs","files":1,"time":1432764918,"description":"The.Shop.Around.The.Corner.1940.HQ.720p.x264.AC3.[FrOnkY].mkv\n\n\nFormat                                   : Matroska\nFormat version                           : Version 4 / Version 2\nFile size                                : 1.67 GiB\nDuration                                 : 1h 38mn\nOverall bit rate                         : 2 417 Kbps\nWriting application                      : mkvmerge v6.9.1 ('Blue Panther') 32bit\nWriting library                          : libebml v1.3.0 + libmatroska v1.4.1\nAttachements                             : Shop1.jpg / Shop2.jpg / Shop3.jpg / Shop4.jpg\n\nVideo\nID                                       : 1\nFormat                                   : AVC\nFormat/Info                              : Advanced Video Codec\nFormat profile                           : High L4.1\nFormat settings, CABAC                   : Yes\nFormat settings, ReFrames                : 11 frames\nCodec ID                                 : V_MPEG4/ISO/AVC\nDuration                                 : 1h 38mn\nBit rate                                 : 2 222 Kbps\nWidth                                    : 964 pixels\nHeight                                   : 720 pixels\nDisplay aspect ratio                     : 4:3\nFrame rate mode                          : Constant\nFrame rate                               : 23.976 fps\nColor space                              : YUV\nChroma subsampling                       : 4:2:0\nBit depth                                : 8 bits\nScan type                                : Progressive\nBits/(Pixel*Frame)                       : 0.134\nStream size                              : 1.50 GiB (90%)\nWriting library                          : x264 core 142 r2491 24e4fed\nLanguage                                 : English\nDefault                                  : Yes\nForced                                   : No\n\nAudio\nID                                       : 2\nFormat                                   : AC-3\nFormat/Info                              : Audio Coding 3\nMode extension                           : CM (complete main)\nFormat settings, Endianness              : Big\nCodec ID                                 : A_AC3\nDuration                                 : 1h 38mn\nBit rate mode                            : Constant\nBit rate                                 : 192 Kbps\nChannel(s)                               : 2 channels\nChannel positions                        : Front: L R\nSampling rate                            : 48.0 KHz\nBit depth                                : 16 bits\nStream size                              : 136 MiB (8%)\nLanguage                                 : English\nDefault                                  : Yes\nForced                                   : No\n\nText #1\nID                                       : 3\nFormat                                   : UTF-8\nCodec ID                                 : S_TEXT/UTF8\nCodec ID/Info                            : UTF-8 Plain Text\nLanguage                                 : Spanish\nDefault                                  : Yes\nForced                                   : No\n\nText #2\nID                                       : 4\nFormat                                   : UTF-8\nCodec ID                                 : S_TEXT/UTF8\nCodec ID/Info                            : UTF-8 Plain Text\nLanguage                                 : Spanish\nDefault                                  : No\nForced                                   : No\n\nText #3\nID                                       : 5\nFormat                                   : UTF-8\nCodec ID                                 : S_TEXT/UTF8\nCodec ID/Info                            : UTF-8 Plain Text\nLanguage                                 : English\nDefault                                  : No\nForced                                   : No\n\nText #4\nID                                       : 6\nFormat                                   : UTF-8\nCodec ID                                 : S_TEXT/UTF8\nCodec ID/Info                            : UTF-8 Plain Text\nLanguage                                 : French\nDefault                                  : No\nForced                                   : No\n\nText #5\nID                                       : 7\nFormat                                   : UTF-8\nCodec ID                                 : S_TEXT/UTF8\nCodec ID/Info                            : UTF-8 Plain Text\nLanguage                                 : Portuguese\nDefault                                  : No\nForced                                   : No\n\nMenu\n00:00:00.000                             : en:Chapter 01\n00:09:56.111                             : en:Chapter 02\n00:18:46.666                             : en:Chapter 03\n00:25:04.666                             : en:Chapter 04\n00:35:07.111                             : en:Chapter 05\n00:41:43.777                             : en:Chapter 06\n00:47:42.777                             : en:Chapter 07\n00:57:53.000                             : en:Chapter 08\n01:05:18.555                             : en:Chapter 09\n01:16:46.222                             : en:Chapter 10\n01:22:24.777                             : en:Chapter 11\n01:28:16.777                             : en:Chapter 12\n\n\nSD - HQ\n &lt;a href=&quot;\nhttp://i.imgur.com/Z7RaORD.png&quot; rel=&quot;nofollow&quot; target=&quot;_NEW&quot;&gt;\nhttp://i.imgur.com/Z7RaORD.png&lt;/a&gt; &lt;a href=&quot;\nhttp://i.imgur.com/vcS8eet.png&quot; rel=&quot;nofollow&quot; target=&quot;_NEW&quot;&gt;\nhttp://i.imgur.com/vcS8eet.png&lt;/a&gt;","torrent":{"xt":"urn:btih:9a59552b3ab3b296a42cae24776c8b88f70bdfed","amp;dn":"The.Shop.Around.The.Corner.1940.HQ.720p.x264.AC3.%5BFrOnkY%5D","amp;tr":["udp%3A%2F%2Ftracker.openbittorrent.com%3A80","udp%3A%2F%2Fopen.demonii.com%3A1337","udp%3A%2F%2Ftracker.coppersurfer.tk%3A6969","udp%3A%2F%2Fexodus.desync.com%3A6969"],"infoHash":"9a59552b3ab3b296a42cae24776c8b88f70bdfed","infoHashBuffer":{"type":"Buffer","data":[154,89,85,43,58,179,178,150,164,44,174,36,119,108,139,136,247,11,223,237]},"announce":[],"urlList":[]}}